<?xml version="1.0" encoding="UTF-8"?>
<svg id="Layer_2" data-name="Layer 2" xmlns="http://www.w3.org/2000/svg" viewBox="0 0 24.81 18.74">
  <defs>
    <style>
      .cls-1 {
        fill: #1d4ed8;
        stroke-width: 0px;
      }
    </style>
  </defs>
  <g id="Layer_1-2" data-name="Layer 1">
    <path class="cls-1" d="M20.29,18.74s-.04,0-.06,0c-1.36-.08-3.15-.41-4.29-1.43-1.16.25-2.26.36-3.53.36C5.56,17.67,0,13.71,0,8.84S5.56,0,12.4,0s12.4,3.96,12.4,8.84c0,2.64-1.59,5.08-4.37,6.74-.02.41,0,1.13.44,1.49.32.27.44.7.28,1.09-.14.36-.49.59-.87.59ZM19.91,18.22h0,0ZM16.18,15.74c.22,0,.43.1.57.27.43.51,1.28.9,2.39,1.1-.36-1-.16-2.06-.15-2.12.04-.2.15-.37.32-.48.02-.01.07-.05.09-.05,2.48-1.39,3.9-3.43,3.9-5.61,0-4.05-4.89-7.34-10.9-7.34S1.5,4.79,1.5,8.84s4.89,7.34,10.9,7.34c1.28,0,2.36-.12,3.52-.4.02,0,.12-.02.15-.03.04,0,.08,0,.12,0Z"/>
    <g>
      <path class="cls-1" d="M10.2,6.93l-4.89-.26v-2.54l1.36.16v-.72l2.17.3v.68l1.36.16v2.22ZM5.31,10.35c0-2.62.76-3.37,2.45-3.29s2.45.8,2.45,3.09v.52c0,2.29-.76,3.08-2.45,3.32s-2.45-.43-2.45-3.05v-.59ZM8.27,10.35c0-.94-.19-1.08-.51-1.08s-.51.16-.51,1.12v.33c0,.96.19,1.1.51,1.08s.51-.19.51-1.13v-.32ZM13.12,8v2.23l-.55.03v3.07l-2.17.31V4.51l2.17.27v3.2h.55Z"/>
      <path class="cls-1" d="M13.4,8.55c0-2.87.72-3.64,2.44-3.43s2.45,1.04,2.45,3.46v.83c0,2.42-.72,3.25-2.45,3.5s-2.44-.51-2.44-3.38v-.98ZM16.19,8.57c0-1.63-.04-1.7-.35-1.72s-.34.05-.34,1.72v.92c0,1.67.04,1.74.34,1.71s.35-.1.35-1.73v-.89ZM20.86,12.15l-2.17.31v-6.91l2.17.27v6.33Z"/>
    </g>
  </g>
</svg>