<?xml version="1.0" encoding="UTF-8"?>
<svg id="Layer_2" data-name="Layer 2" xmlns="http://www.w3.org/2000/svg" viewBox="0 0 38.64 33.11">
  <defs>
    <style>
      .cls-1 {
        fill: #60a5fa;
      }

      .cls-1, .cls-2, .cls-3 {
        stroke-width: 0px;
      }

      .cls-2 {
        fill: #1d4ed8;
      }

      .cls-3 {
        fill: #fff;
      }
    </style>
  </defs>
  <g id="Layer_1-2" data-name="Layer 1">
    <g>
      <path class="cls-1" d="M30.53,13.3v-4.91l-3.75-2.18v-1.94l1.65-1.45c.14-.12.14-.38,0-.44l-2.03-.77c-.12-.04-.26.11-.26.28v4.39l-3.76,3.22v4.2c-2.87.1-8.11,1.19-8.11,1.19v11.76l12.18,3.22,12.18,3.22V14.17s-5.24-1.07-8.11-.87ZM26.46,14.2c-.94.03-1.7-.9-1.7-2.09s.76-2.24,1.7-2.36,1.7.82,1.7,2.09-.76,2.32-1.7,2.36Z"/>
      <path class="cls-1" d="M26.46,10.35c-.14,0-.25.11-.25.25v1.3l-.4.55c-.08.11-.06.27.06.35.04.03.1.05.15.05.08,0,.15-.04.2-.1l.45-.61s.05-.09.05-.15v-1.38c0-.14-.11-.25-.25-.25Z"/>
    </g>
    <g>
      <path class="cls-3" d="M25.86,24.21v2.73l-9.45-1.99v-2.23l9.45,1.49ZM22.78,16.64l3.02,5.93-3.39-.43-1.28-2.66-1.28,2.34-3.39-.43,3.02-4.79,3.3.04Z"/>
      <path class="cls-3" d="M35.97,22.93l-3.27-.36v.5l3.08.37v3.5l-5.59-.99v.43l5.59,1.03v1.62l-8.89-1.87v-3l5.59.86v-.45l-5.59-.82v-1.39l3.08.37v-.47l-3.27-.36v-1.46l5.88.49.08-.57-5.69-.42v-1.44l5.92.27v-.43l-5.92-.23v-1.44l8.71.1v1.87l-.36,2.52.63.05v1.71Z"/>
    </g>
    <path class="cls-3" d="M12.4.75c6.44,0,11.65,3.62,11.65,8.09,0,2.54-1.64,4.78-4.29,6.26l-.04.02s-.33,1.7.66,2.52c.15.12.07.36-.12.35-1.15-.07-3.13-.36-4.09-1.5h-.08c-1.2.3-2.35.44-3.69.44-6.44,0-11.65-3.62-11.65-8.09S5.97.75,12.4.75Z"/>
    <path class="cls-2" d="M20.29,18.74s-.04,0-.06,0c-1.36-.08-3.15-.41-4.29-1.43-1.16.25-2.26.36-3.53.36C5.56,17.67,0,13.71,0,8.84S5.56,0,12.4,0s12.4,3.96,12.4,8.84c0,2.64-1.59,5.08-4.37,6.74-.02.41,0,1.13.44,1.49.32.27.44.7.28,1.09-.14.36-.49.59-.87.59ZM19.91,18.22h0,0ZM16.18,15.74c.22,0,.43.1.57.27.43.51,1.28.9,2.39,1.1-.36-1-.16-2.06-.15-2.12.04-.2.15-.37.32-.48.02-.01.07-.05.09-.05,2.48-1.39,3.9-3.43,3.9-5.61,0-4.05-4.89-7.34-10.9-7.34S1.5,4.79,1.5,8.84s4.89,7.34,10.9,7.34c1.28,0,2.36-.12,3.52-.4.02,0,.12-.02.15-.03.04,0,.08,0,.12,0Z"/>
    <g>
      <path class="cls-2" d="M10.2,6.93l-4.89-.26v-2.54l1.36.16v-.72l2.17.3v.68l1.36.16v2.22ZM5.31,10.35c0-2.62.76-3.37,2.45-3.29s2.45.8,2.45,3.09v.52c0,2.29-.76,3.08-2.45,3.32s-2.45-.43-2.45-3.05v-.59ZM8.27,10.35c0-.94-.19-1.08-.51-1.08s-.51.16-.51,1.12v.33c0,.96.19,1.1.51,1.08s.51-.19.51-1.13v-.32ZM13.12,8v2.23l-.55.03v3.07l-2.17.31V4.51l2.17.27v3.2h.55Z"/>
      <path class="cls-2" d="M13.4,8.55c0-2.87.72-3.64,2.44-3.43s2.45,1.04,2.45,3.46v.83c0,2.42-.72,3.25-2.45,3.5s-2.44-.51-2.44-3.38v-.98ZM16.19,8.57c0-1.63-.04-1.7-.35-1.72s-.34.05-.34,1.72v.92c0,1.67.04,1.74.34,1.71s.35-.1.35-1.73v-.89ZM20.86,12.15l-2.17.31v-6.91l2.17.27v6.33Z"/>
    </g>
  </g>
</svg>